<?xml version="1.0" encoding="UTF-8"?>
<svg xmlns="http://www.w3.org/2000/svg" xmlns:xlink="http://www.w3.org/1999/xlink" width="40pt" height="40pt" viewBox="0 0 40 40" version="1.1">
<g id="surface1">
<path style=" stroke:none;fill-rule:nonzero;fill:rgb(0%,0%,0%);fill-opacity:1;" d="M 19.949219 0 C 8.933594 0 0 8.929688 0 19.949219 C 0 30.964844 8.933594 39.898438 19.949219 39.898438 C 30.964844 39.898438 39.898438 30.964844 39.898438 19.949219 C 39.898438 8.929688 30.964844 0 19.949219 0 Z M 30.066406 22.105469 C 30.996094 23.015625 31.980469 23.871094 32.816406 24.871094 C 33.1875 25.316406 33.535156 25.773438 33.800781 26.289062 C 34.179688 27.023438 33.835938 27.828125 33.179688 27.875 L 29.09375 27.871094 C 28.035156 27.960938 27.195312 27.535156 26.488281 26.8125 C 25.921875 26.238281 25.398438 25.625 24.855469 25.027344 C 24.632812 24.785156 24.398438 24.554688 24.117188 24.375 C 23.5625 24.011719 23.078125 24.121094 22.757812 24.703125 C 22.433594 25.296875 22.359375 25.953125 22.328125 26.613281 C 22.28125 27.574219 21.992188 27.828125 21.023438 27.875 C 18.957031 27.96875 17 27.65625 15.175781 26.613281 C 13.570312 25.695312 12.324219 24.398438 11.242188 22.929688 C 9.128906 20.070312 7.511719 16.929688 6.058594 13.695312 C 5.734375 12.96875 5.972656 12.578125 6.777344 12.5625 C 8.109375 12.539062 9.441406 12.542969 10.777344 12.5625 C 11.320312 12.570312 11.679688 12.882812 11.886719 13.394531 C 12.609375 15.167969 13.492188 16.855469 14.597656 18.421875 C 14.894531 18.835938 15.195312 19.253906 15.625 19.546875 C 16.097656 19.871094 16.460938 19.765625 16.683594 19.234375 C 16.824219 18.898438 16.886719 18.539062 16.917969 18.179688 C 17.023438 16.949219 17.035156 15.714844 16.851562 14.488281 C 16.738281 13.71875 16.304688 13.222656 15.539062 13.078125 C 15.148438 13.003906 15.207031 12.859375 15.398438 12.636719 C 15.726562 12.25 16.035156 12.011719 16.652344 12.011719 L 21.269531 12.011719 C 21.996094 12.152344 22.160156 12.480469 22.257812 13.214844 L 22.261719 18.34375 C 22.253906 18.628906 22.40625 19.46875 22.914062 19.65625 C 23.324219 19.789062 23.59375 19.460938 23.835938 19.203125 C 24.945312 18.027344 25.734375 16.640625 26.441406 15.207031 C 26.75 14.574219 27.019531 13.917969 27.28125 13.261719 C 27.476562 12.777344 27.777344 12.539062 28.324219 12.546875 L 32.773438 12.550781 C 32.902344 12.550781 33.035156 12.550781 33.167969 12.574219 C 33.914062 12.703125 34.121094 13.023438 33.890625 13.757812 C 33.523438 14.90625 32.816406 15.863281 32.121094 16.820312 C 31.378906 17.847656 30.585938 18.839844 29.851562 19.871094 C 29.175781 20.8125 29.230469 21.289062 30.066406 22.105469 Z M 30.066406 22.105469 "/>
</g>
</svg>
